<?xml version="1.0" encoding="UTF-8"?>
<svg version="1.1" xmlns="http://www.w3.org/2000/svg" width="512" height="512">
<path d="M0 0 C1.05700712 -0.00644889 2.11401423 -0.01289778 3.20305187 -0.0195421 C4.9356197 -0.01489629 4.9356197 -0.01489629 6.7031889 -0.01015663 C7.93504931 -0.01468774 9.16690972 -0.01921886 10.43609923 -0.02388728 C13.85270262 -0.03436043 17.26909556 -0.03585663 20.68570006 -0.03349853 C24.37156821 -0.0330904 28.05740496 -0.04412909 31.74325848 -0.05361366 C38.9636347 -0.07022567 46.18397828 -0.0757233 53.40437201 -0.07683842 C59.27375458 -0.07778881 65.14312637 -0.08189867 71.01250553 -0.08823967 C87.65437853 -0.10585275 104.29622574 -0.11507845 120.93810812 -0.11357872 C121.83525198 -0.11349881 122.73239585 -0.1134189 123.65672588 -0.11333656 C125.00408539 -0.11321392 125.00408539 -0.11321392 126.37866428 -0.1130888 C140.93560393 -0.11227592 155.4924401 -0.13141401 170.04934982 -0.1596133 C184.99735816 -0.18834164 199.94531604 -0.20215361 214.89335269 -0.20042574 C223.28510577 -0.19976182 231.67675037 -0.20525524 240.06847858 -0.22678185 C247.21353167 -0.24499302 254.35842711 -0.24934157 261.50349335 -0.235763 C265.14808412 -0.22923291 268.79237246 -0.22911723 272.43693447 -0.2464695 C276.39049069 -0.2650991 280.34360532 -0.25264658 284.29718304 -0.23720741 C286.01971262 -0.2526381 286.01971262 -0.2526381 287.77704078 -0.26838052 C295.54620088 -0.20127353 300.92761416 0.95968567 306.93284893 6.22211266 C307.47167706 6.87308922 308.01050518 7.52406578 308.56566143 8.19476891 C309.11995831 8.84316734 309.67425518 9.49156578 310.24534893 10.15961266 C313.49327656 14.87349681 313.9417847 18.89479994 313.94793034 24.56563091 C313.95143641 25.29500405 313.95494249 26.02437718 313.9585548 26.77585253 C313.96788034 29.22703449 313.96294255 31.67797946 313.95808697 34.12917137 C313.96182265 35.90145124 313.96642384 37.67372945 313.97181761 39.44600505 C313.9840732 44.32195897 313.98378414 49.1978444 313.98142886 54.07381022 C313.98102134 59.33024065 313.99205363 64.58664892 314.001544 69.84306908 C314.01816894 80.14356769 314.02365422 90.44404341 314.02476875 100.74455432 C314.02571851 109.11584282 314.02982518 117.48712377 314.03617001 125.85840988 C314.0537864 149.58348489 314.06300824 173.30854178 314.06150906 197.03362337 C314.06142915 198.31310267 314.06134923 199.59258196 314.0612669 200.91083336 C314.06118514 202.19187172 314.06110338 203.47291008 314.06101914 204.79276779 C314.0602061 225.55755953 314.07934725 246.32227876 314.10754363 267.08704952 C314.13625546 288.3992855 314.15008487 309.71148609 314.14835608 331.0237419 C314.1476916 342.99252838 314.15320948 354.96123885 314.17471218 366.93000793 C314.19290158 377.11998375 314.19728974 387.30984909 314.18369333 397.4998341 C314.17715241 402.69979651 314.17708708 407.89954683 314.19439983 413.09948921 C314.21008581 417.85974305 314.20731273 422.61961584 314.18983157 427.37986013 C314.1867518 429.10191597 314.19043071 430.82399994 314.20155172 432.54602263 C314.30674308 449.98961311 314.30674308 449.98961311 307.72581768 457.49945641 C307.07484112 458.03828453 306.42386456 458.57711266 305.75316143 459.13226891 C305.10476299 459.68656578 304.45636456 460.24086266 303.78831768 460.81195641 C299.77782399 463.57523883 296.218872 464.50705799 291.38132286 464.51453781 C290.32431575 464.5209867 289.26730863 464.5274356 288.178271 464.53407991 C287.02322578 464.53098271 285.86818056 464.5278855 284.67813396 464.52469444 C283.44627355 464.52922556 282.21441314 464.53375667 280.94522363 464.53842509 C277.52862024 464.54889824 274.11222731 464.55039444 270.6956228 464.54803634 C267.00975465 464.54762821 263.3239179 464.5586669 259.63806438 464.56815147 C252.41768816 464.58476349 245.19734458 464.59026111 237.97695085 464.59137623 C232.10756828 464.59232662 226.23819649 464.59643649 220.36881733 464.60277748 C203.72694433 464.62039056 187.08509712 464.62961627 170.44321474 464.62811653 C169.54607088 464.62803662 168.64892702 464.62795671 167.72459698 464.62787437 C166.37723747 464.62775173 166.37723747 464.62775173 165.00265858 464.62762661 C150.44571893 464.62681373 135.88888276 464.64595182 121.33197304 464.67415111 C106.3839647 464.70287945 91.43600682 464.71669143 76.48797017 464.71496356 C68.09621709 464.71429963 59.70457249 464.71979305 51.31284428 464.74131966 C44.1677912 464.75953083 37.02289575 464.76387938 29.87782951 464.75030081 C26.23323874 464.74377072 22.5889504 464.74365504 18.94438839 464.76100731 C14.99083217 464.77963691 11.03771754 464.7671844 7.08413982 464.75174522 C5.93578677 464.76203235 4.78743371 464.77231948 3.60428208 464.78291833 C-4.16487802 464.71581134 -9.5462913 463.55485214 -15.55152607 458.29242516 C-16.09035419 457.64144859 -16.62918232 456.99047203 -17.18433857 456.31976891 C-17.73863544 455.67137047 -18.29293232 455.02297203 -18.86402607 454.35492516 C-22.1119537 449.641041 -22.56046183 445.61973787 -22.56660748 439.9489069 C-22.57011355 439.21953376 -22.57361962 438.49016063 -22.57723194 437.73868528 C-22.58655748 435.28750332 -22.58161969 432.83655835 -22.57676411 430.38536644 C-22.58049979 428.61308658 -22.58510098 426.84080836 -22.59049475 425.06853276 C-22.60275033 420.19257885 -22.60246128 415.31669341 -22.600106 410.44072759 C-22.59969848 405.18429717 -22.61073077 399.92788889 -22.62022114 394.67146873 C-22.63684608 384.37097012 -22.64233136 374.0704944 -22.64344589 363.76998349 C-22.64439565 355.39869499 -22.64850231 347.02741404 -22.65484715 338.65612793 C-22.67246354 314.93105293 -22.68168538 291.20599603 -22.6801862 267.48091444 C-22.68010628 266.20143514 -22.68002637 264.92195585 -22.67994404 263.60370445 C-22.67986228 262.32266609 -22.67978052 261.04162773 -22.67969628 259.72177003 C-22.67888324 238.95697828 -22.69802439 218.19225905 -22.72622077 197.42748829 C-22.7549326 176.11525231 -22.76876201 154.80305172 -22.76703322 133.49079591 C-22.76636874 121.52200943 -22.77188661 109.55329896 -22.79338932 97.58452988 C-22.81157872 87.39455406 -22.81596688 77.20468872 -22.80237047 67.01470371 C-22.79582955 61.8147413 -22.79576422 56.61499098 -22.81307697 51.4150486 C-22.82876295 46.65479476 -22.82598987 41.89492197 -22.80850871 37.13467769 C-22.80542894 35.41262184 -22.80910785 33.69053787 -22.82022886 31.96851518 C-22.92542021 14.5249247 -22.92542021 14.5249247 -16.34449482 7.01508141 C-15.69351826 6.47625328 -15.04254169 5.93742516 -14.37183857 5.38226891 C-13.72344013 4.82797203 -13.07504169 4.27367516 -12.40699482 3.70258141 C-8.39650113 0.93929898 -4.83754914 0.00747982 0 0 Z M-4.30933857 19.25726891 C-6.43176358 23.31559461 -6.56069091 26.81762609 -6.56381416 31.35257435 C-6.56702064 32.05890944 -6.57022712 32.76524454 -6.57353076 33.49298373 C-6.58184878 35.86578331 -6.57590024 38.23833166 -6.57003498 40.61113548 C-6.57305484 42.32709325 -6.57694349 44.04304967 -6.58162755 45.7590037 C-6.59193756 50.47920109 -6.5897181 55.19932277 -6.58544695 59.91952646 C-6.58298518 65.0082255 -6.59198703 70.09690605 -6.59948444 75.18559837 C-6.61224858 85.15656162 -6.61402302 95.12749796 -6.61168418 105.098468 C-6.60990285 113.20089466 -6.61164669 121.30331314 -6.61590862 129.40573883 C-6.61650381 130.55787932 -6.617099 131.71001981 -6.61771223 132.89707365 C-6.61892395 135.23746359 -6.62013808 137.57785353 -6.6213546 139.91824348 C-6.63223666 161.87746746 -6.63006444 183.8366761 -6.62396976 205.79590095 C-6.61879948 225.89597978 -6.63005779 245.99601016 -6.64906798 266.0960794 C-6.66842774 286.72351762 -6.67670568 307.3509329 -6.67294472 327.97838026 C-6.67102992 339.56367338 -6.67354745 351.14892525 -6.68765926 362.73421097 C-6.6995503 372.59631582 -6.70100356 382.45835404 -6.6888691 392.32045978 C-6.6829645 397.3540685 -6.68192452 402.3875552 -6.6938715 407.42115593 C-6.7046765 412.02705147 -6.70169144 416.63272232 -6.68760981 421.23860712 C-6.68494799 422.90679013 -6.6873757 424.57499045 -6.69534568 426.24315654 C-6.70541609 428.50775123 -6.69706093 430.77155947 -6.68406868 433.03612232 C-6.6841237 434.2948429 -6.68417871 435.55356347 -6.68423539 436.85042709 C-6.26159097 440.69117104 -5.45730393 443.04725566 -3.30933857 446.25726891 C0.05164538 448.18547971 2.95640219 448.50792694 6.78694344 448.5117445 C8.3011529 448.52049279 8.3011529 448.52049279 9.84595245 448.52941781 C10.94788863 448.52563849 12.04982482 448.52185917 13.18515301 448.51796532 C14.36125482 448.52179086 15.53735663 448.52561641 16.74909788 448.52955788 C20.00991732 448.53809174 23.27059299 448.53765399 26.5314163 448.53337729 C30.04955221 448.53091158 33.56766157 448.53992227 37.08578777 448.54741478 C43.97663013 448.56016796 50.86743353 448.56195472 57.75828569 448.55961452 C63.35880637 448.55783195 68.95931522 448.55957967 74.55983448 448.56383896 C75.75517586 448.56473174 75.75517586 448.56473174 76.97466554 448.56564256 C78.59351949 448.5668543 80.21237343 448.56806844 81.83122737 448.56928494 C97.01475771 448.58016278 112.19826585 448.57799678 127.38179744 448.57190009 C141.27401952 448.56673024 155.16617149 448.57798773 169.0583797 448.59699831 C183.32159013 448.61636703 197.58476738 448.62463444 211.84799105 448.62087506 C219.8562447 448.61896161 227.86443868 448.62146463 235.87268162 448.6355896 C242.68985913 448.64749204 249.50694022 448.64892107 256.32411902 448.63679943 C259.80234245 448.63090282 263.28038942 448.62983275 266.75860119 448.64180183 C270.52896107 448.65221098 274.29884382 448.64421496 278.06918621 448.63149071 C279.16889167 448.63886499 280.26859713 448.64623928 281.401627 448.65383703 C288.99746889 448.61655283 288.99746889 448.61655283 295.69066143 445.25726891 C297.81308644 441.1989432 297.94201378 437.69691172 297.94513702 433.16196346 C297.9483435 432.45562837 297.95154998 431.74929327 297.95485362 431.02155408 C297.96317164 428.6487545 297.9572231 426.27620616 297.95135784 423.90340233 C297.9543777 422.18744456 297.95826635 420.47148814 297.96295041 418.75553411 C297.97326042 414.03533673 297.97104096 409.31521504 297.96676981 404.59501135 C297.96430804 399.50631231 297.97330989 394.41763176 297.9808073 389.32893944 C297.99357145 379.35797619 297.99534588 369.38703985 297.99300704 359.41606981 C297.99122571 351.31364315 297.99296955 343.21122467 297.99723148 335.10879898 C297.99812427 333.38058825 297.99812427 333.38058825 297.99903509 331.61746417 C298.00024681 329.27707422 298.00146094 326.93668428 298.00267746 324.59629434 C298.01355952 302.63707035 298.0113873 280.67786172 298.00529262 258.71863686 C298.00012234 238.61855803 298.01138065 218.51852765 298.03039084 198.41845841 C298.0497506 177.79102019 298.05802854 157.16360492 298.05426759 136.53615755 C298.05235278 124.95086443 298.05487031 113.36561256 298.06898212 101.78032684 C298.08087316 91.91822199 298.08232642 82.05618377 298.07019196 72.19407804 C298.06428736 67.16046931 298.06324738 62.12698261 298.07519436 57.09338188 C298.08599936 52.48748634 298.08301431 47.88181549 298.06893267 43.2759307 C298.06627085 41.60774768 298.06869856 39.93954736 298.07666854 38.27138127 C298.08673895 36.00678658 298.0783838 33.74297834 298.06539154 31.47841549 C298.06547406 29.59033463 298.06547406 29.59033463 298.06555825 27.66411072 C297.64291383 23.82336677 296.83862679 21.46728215 294.69066143 18.25726891 C291.32967748 16.3290581 288.42492067 16.00661087 284.59437943 16.00279331 C283.58490645 15.99696112 282.57543347 15.99112893 281.53537041 15.98512 C279.88246613 15.99078898 279.88246613 15.99078898 278.19616985 15.99657249 C276.43201714 15.99083417 276.43201714 15.99083417 274.63222498 15.98497993 C271.37140554 15.97644608 268.11072987 15.97688382 264.84990656 15.98116052 C261.33177065 15.98362623 257.81366129 15.97461554 254.29553509 15.96712303 C247.40469273 15.95436985 240.51388934 15.9525831 233.62303717 15.95492329 C228.02251649 15.95670586 222.42200764 15.95495814 216.82148838 15.95069885 C216.02459413 15.95010366 215.22769988 15.94950847 214.40665732 15.94889525 C212.78780337 15.94768351 211.16894943 15.94646937 209.55009549 15.94525287 C194.36656515 15.93437503 179.18305701 15.93654103 163.99952542 15.94263772 C150.10730334 15.94780757 136.21515137 15.93655008 122.32294316 15.9175395 C108.05973273 15.89817078 93.79655548 15.88990337 79.53333181 15.89366275 C71.52507816 15.89557621 63.51688418 15.89307318 55.50864124 15.87894821 C48.69146373 15.86704577 41.87438264 15.86561674 35.05720384 15.87773838 C31.57898041 15.88363499 28.10093344 15.88470506 24.62272167 15.87273598 C20.85236179 15.86232683 17.08247904 15.87032285 13.31213665 15.8830471 C12.21243119 15.87567282 11.11272573 15.86829853 9.97969586 15.86070079 C2.38385397 15.89798498 2.38385397 15.89798498 -4.30933857 19.25726891 Z " fill="#7B90D3" transform="translate(110.30933856964111,23.74273109436035)"/>
<path d="M0 0 C1.32396412 -0.00935994 1.32396412 -0.00935994 2.67467499 -0.01890898 C5.63820449 -0.03488939 8.60091723 -0.02221496 11.56445312 -0.00964355 C13.68660971 -0.01506242 15.80876253 -0.02218375 17.9309082 -0.03088379 C23.69944448 -0.04914793 29.46769519 -0.04203675 35.23623657 -0.02936745 C41.26687401 -0.01925584 47.29748663 -0.02862801 53.328125 -0.03491211 C63.45642497 -0.04219387 73.58460835 -0.03258689 83.71289062 -0.0135498 C95.43046156 0.00821986 107.14775411 0.00116887 118.8653183 -0.02085543 C128.9172072 -0.03899431 138.96901219 -0.04157513 149.02091217 -0.03110075 C155.02822942 -0.02485753 161.03541572 -0.024053 167.04272461 -0.0372467 C172.68986066 -0.04878253 178.33663703 -0.04082075 183.98373413 -0.01766968 C186.05902509 -0.01237048 188.1343462 -0.01391694 190.20962524 -0.02272034 C193.03729732 -0.0336115 195.86380863 -0.01999008 198.69140625 0 C199.51747124 -0.00892289 200.34353622 -0.01784577 201.19463348 -0.02703905 C204.83326075 0.02303872 206.91491899 0.18028064 209.85485077 2.41638947 C211.49301732 4.71460446 211.85041744 5.78273241 211.86328125 8.57043457 C211.87588989 9.35805176 211.88849854 10.14566895 211.90148926 10.95715332 C211.89339233 11.79891113 211.88529541 12.64066895 211.87695312 13.50793457 C211.88078003 14.38062988 211.88460693 15.2533252 211.8885498 16.15246582 C211.89126803 17.99492549 211.88391307 19.83742381 211.8671875 21.67980957 C211.8457756 24.49839391 211.86699114 27.31442942 211.89257812 30.13293457 C211.88993483 31.92460686 211.88480982 33.71627756 211.87695312 35.50793457 C211.88505005 36.34969238 211.89314697 37.1914502 211.90148926 38.05871582 C211.88257629 39.2401416 211.88257629 39.2401416 211.86328125 40.44543457 C211.86009888 41.13508301 211.8569165 41.82473145 211.8536377 42.53527832 C211.07309272 45.56666665 209.8390834 46.61147232 207.34570312 48.50793457 C204.33853774 48.90065775 201.69819313 49.04834748 198.69140625 49.01586914 C197.8087635 49.0221091 196.92612076 49.02834907 196.01673126 49.03477812 C193.05320176 49.05075853 190.09048902 49.0380841 187.12695312 49.0255127 C185.00479654 49.03093156 182.88264372 49.03805289 180.76049805 49.04675293 C174.99196177 49.06501707 169.22371106 49.05790589 163.45516968 49.04523659 C157.42453224 49.03512498 151.39391962 49.04449715 145.36328125 49.05078125 C135.23498128 49.05806301 125.1067979 49.04845603 114.97851562 49.02941895 C103.26094469 49.00764928 91.54365214 49.01470027 79.82608795 49.03672457 C69.77419905 49.05486346 59.72239406 49.05744427 49.67049408 49.04696989 C43.66317683 49.04072667 37.65599053 49.03992214 31.64868164 49.05311584 C26.00154559 49.06465167 20.35476922 49.05668989 14.70767212 49.03353882 C12.63238116 49.02823962 10.55706005 49.02978609 8.48178101 49.03858948 C5.65410893 49.04948065 2.82759762 49.03585923 0 49.01586914 C-0.82606499 49.02479203 -1.65212997 49.03371491 -2.50322723 49.04290819 C-6.1418545 48.99283043 -8.22351274 48.8355885 -11.16344452 46.59947968 C-12.80161107 44.30126469 -13.15901119 43.23313673 -13.171875 40.44543457 C-13.18448364 39.65781738 -13.19709229 38.8702002 -13.21008301 38.05871582 C-13.20198608 37.21695801 -13.19388916 36.3752002 -13.18554688 35.50793457 C-13.18937378 34.63523926 -13.19320068 33.76254395 -13.19714355 32.86340332 C-13.19986178 31.02094365 -13.19250682 29.17844533 -13.17578125 27.33605957 C-13.15436935 24.51747523 -13.17558489 21.70143972 -13.20117188 18.88293457 C-13.19852858 17.09126228 -13.19340357 15.29959158 -13.18554688 13.50793457 C-13.1936438 12.66617676 -13.20174072 11.82441895 -13.21008301 10.95715332 C-13.19747437 10.16953613 -13.18486572 9.38191895 -13.171875 8.57043457 C-13.16869263 7.88078613 -13.16551025 7.1911377 -13.16223145 6.48059082 C-11.44516446 -0.18795098 -5.82357306 -0.06290435 0 0 Z M3.34570312 16.50793457 C3.34570312 21.78793457 3.34570312 27.06793457 3.34570312 32.50793457 C66.70570313 32.50793457 130.06570313 32.50793457 195.34570312 32.50793457 C195.34570312 27.22793457 195.34570312 21.94793457 195.34570312 16.50793457 C131.98570312 16.50793457 68.62570313 16.50793457 3.34570312 16.50793457 Z " fill="#7296EB" transform="translate(156.654296875,263.4920654296875)"/>
<path d="M0 0 C1.06992187 0.474375 2.13984375 0.94875 3.2421875 1.4375 C19.75466286 9.51889971 30.60523995 22.82755446 37 40 C39.11821888 46.78573276 39.36638278 53.16664655 39.375 60.25 C39.39949219 61.32507813 39.42398438 62.40015625 39.44921875 63.5078125 C39.45308594 64.54164063 39.45695313 65.57546875 39.4609375 66.640625 C39.46915527 67.57422852 39.47737305 68.50783203 39.48583984 69.46972656 C38.8438692 72.81313546 37.60829104 73.85919877 35 76 C32.64489746 76.50336456 32.64489746 76.50336456 29.99023438 76.50793457 C28.98081787 76.51921387 27.97140137 76.53049316 26.93139648 76.54211426 C25.82997314 76.53401733 24.7285498 76.52592041 23.59375 76.51757812 C22.4291626 76.5245874 21.2645752 76.53159668 20.06469727 76.53881836 C16.20955667 76.55644432 12.35514826 76.54475841 8.5 76.53125 C5.82486047 76.53394357 3.14974331 76.53781853 0.47460938 76.54284668 C-5.1341955 76.55012197 -10.74278963 76.54053871 -16.3515625 76.52148438 C-22.83417907 76.49971557 -29.31629242 76.50676705 -35.79889679 76.52879 C-41.36676589 76.54694759 -46.93448359 76.54950066 -52.50237274 76.53903532 C-55.8269567 76.53280222 -59.15125252 76.53353198 -62.47583008 76.54518127 C-66.18215157 76.55531748 -69.88750107 76.53988485 -73.59375 76.51757812 C-74.69517334 76.52567505 -75.79659668 76.53377197 -76.93139648 76.54211426 C-78.44552124 76.52519531 -78.44552124 76.52519531 -79.99023438 76.50793457 C-80.86627319 76.50642647 -81.74231201 76.50491837 -82.64489746 76.50336456 C-85.78935742 75.83128779 -87.00281459 74.46440718 -89 72 C-89.51757812 69.54907227 -89.51757812 69.54907227 -89.53125 66.81640625 C-89.53954834 65.81262939 -89.54784668 64.80885254 -89.55639648 63.7746582 C-89.53778564 62.714646 -89.5191748 61.65463379 -89.5 60.5625 C-89.48718994 59.47735107 -89.47437988 58.39220215 -89.46118164 57.27416992 C-89.25654758 49.16956799 -88.40424356 42.4366511 -85 35 C-84.2884375 33.39511719 -84.2884375 33.39511719 -83.5625 31.7578125 C-75.48110029 15.24533714 -62.17244554 4.39476005 -45 -2 C-31.0853272 -6.30117326 -13.31519737 -6.09524021 0 0 Z M-61.40625 29.0625 C-69.32662004 38.69118515 -72 47.64561413 -72 60 C-40.98 60 -9.96 60 22 60 C22 45.53424305 17.44540766 35.76736745 7.6875 25.25 C-1.24540643 16.77672858 -12.07801055 12.40276111 -24.3125 12.5625 C-25.55471313 12.57494751 -25.55471313 12.57494751 -26.82202148 12.58764648 C-40.78437254 12.96985989 -51.86288832 18.97894804 -61.40625 29.0625 Z " fill="#8F88E7" transform="translate(281,164)"/>
<path d="M0 0 C8.80288754 6.34043826 15.4186507 14.72648904 17.58203125 25.4921875 C18.92007691 37.90936834 17.85729499 48.88109459 10.39453125 59.2421875 C3.58210875 67.3274193 -4.72289951 73.55522767 -15.48876953 74.71533203 C-28.40007937 75.61089799 -39.16843729 74.04490094 -49.3515625 65.46484375 C-57.86959925 57.33325857 -62.42046403 48.68416257 -62.88867188 36.85693359 C-63.04371176 24.34263074 -60.22647828 14.71931927 -51.41796875 5.4921875 C-37.63784493 -7.66275112 -16.31305228 -10.17259803 0 0 Z M-41.97265625 21.39453125 C-46.0977477 27.38148831 -46.13405017 33.44153962 -45.41796875 40.4921875 C-43.64454442 47.13691664 -38.97130405 51.66586709 -33.41796875 55.4921875 C-27.41909871 58.43281007 -20.53513345 58.59102538 -14.10546875 56.875 C-7.97664014 54.16969675 -3.17844083 49.08355055 -0.24609375 43.1015625 C1.66008982 37.09528598 1.64641812 29.98927192 -0.91796875 24.1796875 C-4.40259013 18.23971013 -9.85252705 13.57583067 -16.41796875 11.4921875 C-27.85241972 10.13582504 -34.59614364 12.76572696 -41.97265625 21.39453125 Z " fill="#AC79CB" transform="translate(278.41796875,77.5078125)"/>
<path d="M0 0 C1.12795361 -0.00935994 1.12795361 -0.00935994 2.27869415 -0.01890898 C4.80004674 -0.03487215 7.32043701 -0.02222232 9.84179688 -0.00964355 C11.64868738 -0.01506322 13.45557347 -0.022185 15.26245117 -0.03088379 C20.17152718 -0.04913865 25.0802674 -0.04204069 29.98934937 -0.02936745 C35.12311722 -0.01925099 40.25685604 -0.02862936 45.390625 -0.03491211 C54.01242238 -0.04219246 62.63408278 -0.03259062 71.25585938 -0.0135498 C81.22843656 0.00821965 91.20068666 0.00116856 101.17325592 -0.02085543 C109.73046929 -0.03899836 118.2875841 -0.04157316 126.84481049 -0.03110075 C131.95787417 -0.02485974 137.07078404 -0.02404689 142.18383789 -0.0372467 C146.99052263 -0.04878848 151.79678503 -0.04081012 156.60342407 -0.01766968 C158.36910297 -0.01237363 160.13481731 -0.01391164 161.90048218 -0.02272034 C164.30783501 -0.03362444 166.71382798 -0.01997589 169.12109375 0 C169.82264839 -0.00892289 170.52420303 -0.01784577 171.24701691 -0.02703905 C174.62446015 0.02745936 176.2994499 0.30320835 178.99230957 2.41468048 C180.69443484 4.68664574 181.10432144 5.7063621 181.06054688 8.50793457 C181.07601562 9.49793457 181.07601562 9.49793457 181.09179688 10.50793457 C180.29774127 13.49732038 178.98803599 14.60453958 176.56054688 16.50793457 C173.94027455 16.9011101 171.73919684 17.0491681 169.12109375 17.01586914 C167.99314014 17.02522908 167.99314014 17.02522908 166.8423996 17.03477812 C164.32104701 17.05074129 161.80065674 17.03809146 159.27929688 17.0255127 C157.47240637 17.03093236 155.66552028 17.03805414 153.85864258 17.04675293 C148.94956657 17.06500779 144.04082635 17.05790983 139.13174438 17.04523659 C133.99797653 17.03512013 128.86423771 17.0444985 123.73046875 17.05078125 C115.10867137 17.0580616 106.48701097 17.04845976 97.86523438 17.02941895 C87.89265719 17.00764949 77.92040709 17.01470058 67.94783783 17.03672457 C59.39062446 17.0548675 50.83350965 17.0574423 42.27628326 17.04696989 C37.16321958 17.04072888 32.05030971 17.03991603 26.93725586 17.05311584 C22.13057112 17.06465762 17.32430872 17.05667926 12.51766968 17.03353882 C10.75199078 17.02824277 8.98627644 17.02978079 7.22061157 17.03858948 C4.81325874 17.04949358 2.40726577 17.03584503 0 17.01586914 C-1.05233196 17.02925347 -1.05233196 17.02925347 -2.12592316 17.04290819 C-5.5033664 16.98840978 -7.17835615 16.71266079 -9.87121582 14.60118866 C-11.57334109 12.3292234 -11.98322769 11.30950704 -11.93945312 8.50793457 C-11.95492187 7.51793457 -11.95492187 7.51793457 -11.97070312 6.50793457 C-10.33950272 0.36694482 -5.52211149 -0.07023427 0 0 Z " fill="#4FA6EA" transform="translate(171.439453125,375.4920654296875)"/>
<path d="M0 0 C1.12795361 -0.00935994 1.12795361 -0.00935994 2.27869415 -0.01890898 C4.80004674 -0.03487215 7.32043701 -0.02222232 9.84179688 -0.00964355 C11.64868738 -0.01506322 13.45557347 -0.022185 15.26245117 -0.03088379 C20.17152718 -0.04913865 25.0802674 -0.04204069 29.98934937 -0.02936745 C35.12311722 -0.01925099 40.25685604 -0.02862936 45.390625 -0.03491211 C54.01242238 -0.04219246 62.63408278 -0.03259062 71.25585938 -0.0135498 C81.22843656 0.00821965 91.20068666 0.00116856 101.17325592 -0.02085543 C109.73046929 -0.03899836 118.2875841 -0.04157316 126.84481049 -0.03110075 C131.95787417 -0.02485974 137.07078404 -0.02404689 142.18383789 -0.0372467 C146.99052263 -0.04878848 151.79678503 -0.04081012 156.60342407 -0.01766968 C158.36910297 -0.01237363 160.13481731 -0.01391164 161.90048218 -0.02272034 C164.30783501 -0.03362444 166.71382798 -0.01997589 169.12109375 0 C169.82264839 -0.00892289 170.52420303 -0.01784577 171.24701691 -0.02703905 C174.62446015 0.02745936 176.2994499 0.30320835 178.99230957 2.41468048 C180.69443484 4.68664574 181.10432144 5.7063621 181.06054688 8.50793457 C181.07601562 9.49793457 181.07601562 9.49793457 181.09179688 10.50793457 C180.29774127 13.49732038 178.98803599 14.60453958 176.56054688 16.50793457 C173.94027455 16.9011101 171.73919684 17.0491681 169.12109375 17.01586914 C167.99314014 17.02522908 167.99314014 17.02522908 166.8423996 17.03477812 C164.32104701 17.05074129 161.80065674 17.03809146 159.27929688 17.0255127 C157.47240637 17.03093236 155.66552028 17.03805414 153.85864258 17.04675293 C148.94956657 17.06500779 144.04082635 17.05790983 139.13174438 17.04523659 C133.99797653 17.03512013 128.86423771 17.0444985 123.73046875 17.05078125 C115.10867137 17.0580616 106.48701097 17.04845976 97.86523438 17.02941895 C87.89265719 17.00764949 77.92040709 17.01470058 67.94783783 17.03672457 C59.39062446 17.0548675 50.83350965 17.0574423 42.27628326 17.04696989 C37.16321958 17.04072888 32.05030971 17.03991603 26.93725586 17.05311584 C22.13057112 17.06465762 17.32430872 17.05667926 12.51766968 17.03353882 C10.75199078 17.02824277 8.98627644 17.02978079 7.22061157 17.03858948 C4.81325874 17.04949358 2.40726577 17.03584503 0 17.01586914 C-1.05233196 17.02925347 -1.05233196 17.02925347 -2.12592316 17.04290819 C-5.5033664 16.98840978 -7.17835615 16.71266079 -9.87121582 14.60118866 C-11.57334109 12.3292234 -11.98322769 11.30950704 -11.93945312 8.50793457 C-11.95492187 7.51793457 -11.95492187 7.51793457 -11.97070312 6.50793457 C-10.33950272 0.36694482 -5.52211149 -0.07023427 0 0 Z " fill="#5D9FEA" transform="translate(171.439453125,335.4920654296875)"/>
<path d="M0 0 C1.14404297 -0.0112793 2.28808594 -0.02255859 3.46679688 -0.03417969 C5.34334961 -0.0220343 5.34334961 -0.0220343 7.2578125 -0.00964355 C8.59180465 -0.01506511 9.9257908 -0.02218797 11.25976562 -0.03088379 C14.87966598 -0.04911656 18.49911024 -0.04205017 22.11901855 -0.02936745 C25.9074832 -0.01923938 29.69590882 -0.02863258 33.484375 -0.03491211 C39.84642548 -0.04218911 46.20829022 -0.03259956 52.5703125 -0.0135498 C59.92541387 0.00821921 67.28007173 0.00116786 74.63516235 -0.02085543 C80.95036617 -0.03900805 87.26543648 -0.04156848 93.58065796 -0.03110075 C97.35234853 -0.02486499 101.12383064 -0.02403225 104.89550781 -0.0372467 C108.44153603 -0.04880278 111.98699253 -0.04078487 115.53295898 -0.01766968 C117.45490737 -0.00985857 119.37690412 -0.02174065 121.29882812 -0.03417969 C123.01489258 -0.01726074 123.01489258 -0.01726074 124.765625 0 C125.75965332 0.0015081 126.75368164 0.0030162 127.77783203 0.00457001 C131.10045353 0.6466055 132.29109008 1.90497918 134.3828125 4.50793457 C134.9140625 6.50793457 134.9140625 6.50793457 134.8828125 8.50793457 C134.89828125 9.49793457 134.89828125 9.49793457 134.9140625 10.50793457 C134.13782429 13.43024313 132.6995018 14.60216083 130.3828125 16.50793457 C127.77783203 17.01129913 127.77783203 17.01129913 124.765625 17.01586914 C123.62158203 17.02714844 122.47753906 17.03842773 121.29882812 17.05004883 C120.04779297 17.0419519 118.79675781 17.03385498 117.5078125 17.0255127 C116.17382035 17.03093425 114.8398342 17.03805711 113.50585938 17.04675293 C109.88595902 17.0649857 106.26651476 17.05791931 102.64660645 17.04523659 C98.8581418 17.03510852 95.06971618 17.04450172 91.28125 17.05078125 C84.91919952 17.05805825 78.55733478 17.0484687 72.1953125 17.02941895 C64.84021113 17.00764993 57.48555327 17.01470128 50.13046265 17.03672457 C43.81525883 17.05487719 37.50018852 17.05743762 31.18496704 17.04696989 C27.41327647 17.04073413 23.64179436 17.03990139 19.87011719 17.05311584 C16.32408897 17.06467192 12.77863247 17.05665401 9.23266602 17.03353882 C7.31071763 17.02572771 5.38872088 17.03760979 3.46679688 17.05004883 C1.75073242 17.03312988 1.75073242 17.03312988 0 17.01586914 C-0.99402832 17.01436104 -1.98805664 17.01285294 -3.01220703 17.01129913 C-6.33482853 16.36926364 -7.52546508 15.11088996 -9.6171875 12.50793457 C-10.1484375 10.50793457 -10.1484375 10.50793457 -10.1171875 8.50793457 C-10.13265625 7.51793457 -10.13265625 7.51793457 -10.1484375 6.50793457 C-8.74861472 1.23801353 -4.99267277 0.0075747 0 0 Z " fill="#47A9EA" transform="translate(169.6171875,415.4920654296875)"/>
</svg>
